<?xml version="1.0" encoding="UTF-8" standalone="no"?>
<!DOCTYPE svg PUBLIC "-//W3C//DTD SVG 1.1//EN"
 "http://www.w3.org/Graphics/SVG/1.1/DTD/svg11.dtd">
<!-- Generated by graphviz version 2.47.0 (20210316.0004)
 -->
<!-- Title: dependencies Pages: 1 -->
<svg width="1000pt" height="211pt"
 viewBox="0.00 0.00 1000.00 211.00" xmlns="http://www.w3.org/2000/svg" xmlns:xlink="http://www.w3.org/1999/xlink">
<g id="graph0" class="graph" transform="scale(1 1) rotate(0) translate(4 207)">
<title>dependencies</title>
<polygon fill="white" stroke="transparent" points="-4,4 -4,-207 996,-207 996,4 -4,4"/>
<text text-anchor="start" x="475.01" y="-42.4" font-family="Times-12" font-weight="bold" font-size="14.00">Legend</text>
<polygon fill="#ffffb3" stroke="transparent" points="262,-10 262,-30 282,-30 282,-10 262,-10"/>
<text text-anchor="start" x="285.63" y="-15.4" font-family="Times-12" font-size="14.00"> &#160;Declarations</text>
<polygon fill="#8dd3c7" stroke="transparent" points="375,-10 375,-30 395,-30 395,-10 375,-10"/>
<text text-anchor="start" x="398.73" y="-15.4" font-family="Times-12" font-size="14.00"> &#160;Module</text>
<polygon fill="#80b1d3" stroke="transparent" points="461,-10 461,-30 481,-30 481,-10 461,-10"/>
<text text-anchor="start" x="484.78" y="-15.4" font-family="Times-12" font-size="14.00"> &#160;Bootstrap</text>
<polygon fill="#fdb462" stroke="transparent" points="558,-10 558,-30 578,-30 578,-10 558,-10"/>
<text text-anchor="start" x="581.67" y="-15.4" font-family="Times-12" font-size="14.00"> &#160;Providers</text>
<polygon fill="#fb8072" stroke="transparent" points="654,-10 654,-30 674,-30 674,-10 654,-10"/>
<text text-anchor="start" x="677.73" y="-15.4" font-family="Times-12" font-size="14.00"> &#160;Exports</text>
<g id="clust1" class="cluster">
<title>cluster_AppModule</title>
<polygon fill="none" stroke="black" stroke-dasharray="1,5" points="8,-70 8,-195 984,-195 984,-70 8,-70"/>
</g>
<g id="clust3" class="cluster">
<title>cluster_AppModule_imports</title>
<polygon fill="none" stroke="black" points="16,-78 16,-130 976,-130 976,-78 16,-78"/>
</g>
<!-- AuthModule -->
<g id="node1" class="node">
<title>AuthModule</title>
<polygon fill="#8dd3c7" stroke="black" points="967.55,-122 964.55,-126 943.55,-126 940.55,-122 880.45,-122 880.45,-86 967.55,-86 967.55,-122"/>
<text text-anchor="middle" x="924" y="-99.8" font-family="Times,serif" font-size="14.00">AuthModule</text>
</g>
<!-- AppModule -->
<g id="node9" class="node">
<title>AppModule</title>
<polygon fill="#8dd3c7" stroke="black" points="535.66,-187 532.66,-191 511.66,-191 508.66,-187 452.34,-187 452.34,-151 535.66,-151 535.66,-187"/>
<text text-anchor="middle" x="494" y="-164.8" font-family="Times,serif" font-size="14.00">AppModule</text>
</g>
<!-- AuthModule&#45;&gt;AppModule -->
<g id="edge1" class="edge">
<title>AuthModule&#45;&gt;AppModule</title>
<path fill="none" stroke="black" d="M924,-122.29C924,-144.21 924,-178 924,-178 924,-178 546.01,-178 546.01,-178"/>
<polygon fill="black" stroke="black" points="546.01,-174.5 536.01,-178 546.01,-181.5 546.01,-174.5"/>
</g>
<!-- BookModule -->
<g id="node2" class="node">
<title>BookModule</title>
<polygon fill="#8dd3c7" stroke="black" points="861.89,-122 858.89,-126 837.89,-126 834.89,-122 772.11,-122 772.11,-86 861.89,-86 861.89,-122"/>
<text text-anchor="middle" x="817" y="-99.8" font-family="Times,serif" font-size="14.00">BookModule</text>
</g>
<!-- BookModule&#45;&gt;AppModule -->
<g id="edge2" class="edge">
<title>BookModule&#45;&gt;AppModule</title>
<path fill="none" stroke="black" d="M817,-122.11C817,-141.34 817,-169 817,-169 817,-169 545.9,-169 545.9,-169"/>
<polygon fill="black" stroke="black" points="545.9,-165.5 535.9,-169 545.9,-172.5 545.9,-165.5"/>
</g>
<!-- BookmarkModule -->
<g id="node3" class="node">
<title>BookmarkModule</title>
<polygon fill="#8dd3c7" stroke="black" points="754.15,-122 751.15,-126 730.15,-126 727.15,-122 635.85,-122 635.85,-86 754.15,-86 754.15,-122"/>
<text text-anchor="middle" x="695" y="-99.8" font-family="Times,serif" font-size="14.00">BookmarkModule</text>
</g>
<!-- BookmarkModule&#45;&gt;AppModule -->
<g id="edge3" class="edge">
<title>BookmarkModule&#45;&gt;AppModule</title>
<path fill="none" stroke="black" d="M695,-122.03C695,-138.4 695,-160 695,-160 695,-160 546.14,-160 546.14,-160"/>
<polygon fill="black" stroke="black" points="546.14,-156.5 536.14,-160 546.14,-163.5 546.14,-156.5"/>
</g>
<!-- CategoryModule -->
<g id="node4" class="node">
<title>CategoryModule</title>
<polygon fill="#8dd3c7" stroke="black" points="617.37,-122 614.37,-126 593.37,-126 590.37,-122 506.63,-122 506.63,-86 617.37,-86 617.37,-122"/>
<text text-anchor="middle" x="562" y="-99.8" font-family="Times,serif" font-size="14.00">CategoryModule</text>
</g>
<!-- CategoryModule&#45;&gt;AppModule -->
<g id="edge4" class="edge">
<title>CategoryModule&#45;&gt;AppModule</title>
<path fill="none" stroke="black" d="M521.2,-122.11C521.2,-122.11 521.2,-140.99 521.2,-140.99"/>
<polygon fill="black" stroke="black" points="517.7,-140.99 521.2,-150.99 524.7,-140.99 517.7,-140.99"/>
</g>
<!-- FileUploadModule -->
<g id="node5" class="node">
<title>FileUploadModule</title>
<polygon fill="#8dd3c7" stroke="black" points="488.04,-122 485.04,-126 464.04,-126 461.04,-122 365.96,-122 365.96,-86 488.04,-86 488.04,-122"/>
<text text-anchor="middle" x="427" y="-99.8" font-family="Times,serif" font-size="14.00">FileUploadModule</text>
</g>
<!-- FileUploadModule&#45;&gt;AppModule -->
<g id="edge5" class="edge">
<title>FileUploadModule&#45;&gt;AppModule</title>
<path fill="none" stroke="black" d="M470.22,-122.11C470.22,-122.11 470.22,-140.99 470.22,-140.99"/>
<polygon fill="black" stroke="black" points="466.72,-140.99 470.22,-150.99 473.72,-140.99 466.72,-140.99"/>
</g>
<!-- PrismaModule -->
<g id="node6" class="node">
<title>PrismaModule</title>
<polygon fill="#8dd3c7" stroke="black" points="348.43,-122 345.43,-126 324.43,-126 321.43,-122 249.57,-122 249.57,-86 348.43,-86 348.43,-122"/>
<text text-anchor="middle" x="299" y="-99.8" font-family="Times,serif" font-size="14.00">PrismaModule</text>
</g>
<!-- PrismaModule&#45;&gt;AppModule -->
<g id="edge6" class="edge">
<title>PrismaModule&#45;&gt;AppModule</title>
<path fill="none" stroke="black" d="M299,-122.03C299,-138.4 299,-160 299,-160 299,-160 442.17,-160 442.17,-160"/>
<polygon fill="black" stroke="black" points="442.17,-163.5 452.17,-160 442.17,-156.5 442.17,-163.5"/>
</g>
<!-- ProductModule -->
<g id="node7" class="node">
<title>ProductModule</title>
<polygon fill="#8dd3c7" stroke="black" points="231.6,-122 228.6,-126 207.6,-126 204.6,-122 128.4,-122 128.4,-86 231.6,-86 231.6,-122"/>
<text text-anchor="middle" x="180" y="-99.8" font-family="Times,serif" font-size="14.00">ProductModule</text>
</g>
<!-- ProductModule&#45;&gt;AppModule -->
<g id="edge7" class="edge">
<title>ProductModule&#45;&gt;AppModule</title>
<path fill="none" stroke="black" d="M180,-122.11C180,-141.34 180,-169 180,-169 180,-169 442.3,-169 442.3,-169"/>
<polygon fill="black" stroke="black" points="442.3,-172.5 452.3,-169 442.3,-165.5 442.3,-172.5"/>
</g>
<!-- UserModule -->
<g id="node8" class="node">
<title>UserModule</title>
<polygon fill="#8dd3c7" stroke="black" points="109.98,-122 106.98,-126 85.98,-126 82.98,-122 24.02,-122 24.02,-86 109.98,-86 109.98,-122"/>
<text text-anchor="middle" x="67" y="-99.8" font-family="Times,serif" font-size="14.00">UserModule</text>
</g>
<!-- UserModule&#45;&gt;AppModule -->
<g id="edge8" class="edge">
<title>UserModule&#45;&gt;AppModule</title>
<path fill="none" stroke="black" d="M67,-122.29C67,-144.21 67,-178 67,-178 67,-178 442.28,-178 442.28,-178"/>
<polygon fill="black" stroke="black" points="442.28,-181.5 452.28,-178 442.28,-174.5 442.28,-181.5"/>
</g>
</g>
</svg>
