<?xml version="1.0" encoding="UTF-8" standalone="no"?>
<!DOCTYPE svg PUBLIC "-//W3C//DTD SVG 1.1//EN"
 "http://www.w3.org/Graphics/SVG/1.1/DTD/svg11.dtd">
<!-- Generated by graphviz version 2.47.0 (20210316.0004)
 -->
<!-- Title: dependencies Pages: 1 -->
<svg width="1592pt" height="298pt"
 viewBox="0.00 0.00 1592.00 298.00" xmlns="http://www.w3.org/2000/svg" xmlns:xlink="http://www.w3.org/1999/xlink">
<g id="graph0" class="graph" transform="scale(1 1) rotate(0) translate(4 294)">
<title>dependencies</title>
<polygon fill="white" stroke="transparent" points="-4,4 -4,-294 1588,-294 1588,4 -4,4"/>
<text text-anchor="start" x="771.01" y="-42.4" font-family="Times-12" font-weight="bold" font-size="14.00">Legend</text>
<polygon fill="#ffffb3" stroke="transparent" points="558,-10 558,-30 578,-30 578,-10 558,-10"/>
<text text-anchor="start" x="581.63" y="-15.4" font-family="Times-12" font-size="14.00"> &#160;Declarations</text>
<polygon fill="#8dd3c7" stroke="transparent" points="671,-10 671,-30 691,-30 691,-10 671,-10"/>
<text text-anchor="start" x="694.73" y="-15.4" font-family="Times-12" font-size="14.00"> &#160;Module</text>
<polygon fill="#80b1d3" stroke="transparent" points="757,-10 757,-30 777,-30 777,-10 757,-10"/>
<text text-anchor="start" x="780.78" y="-15.4" font-family="Times-12" font-size="14.00"> &#160;Bootstrap</text>
<polygon fill="#fdb462" stroke="transparent" points="854,-10 854,-30 874,-30 874,-10 854,-10"/>
<text text-anchor="start" x="877.67" y="-15.4" font-family="Times-12" font-size="14.00"> &#160;Providers</text>
<polygon fill="#fb8072" stroke="transparent" points="950,-10 950,-30 970,-30 970,-10 950,-10"/>
<text text-anchor="start" x="973.73" y="-15.4" font-family="Times-12" font-size="14.00"> &#160;Exports</text>
<g id="clust1" class="cluster">
<title>cluster_AppModule</title>
<polygon fill="none" stroke="black" stroke-dasharray="1,5" points="303,-146 303,-274 1278,-274 1278,-146 303,-146"/>
</g>
<g id="clust3" class="cluster">
<title>cluster_AppModule_imports</title>
<polygon fill="none" stroke="black" points="311,-154 311,-206 1270,-206 1270,-154 311,-154"/>
</g>
<g id="clust7" class="cluster">
<title>cluster_AuthModule</title>
<polygon fill="none" stroke="black" stroke-dasharray="1,5" points="8,-70 8,-138 290,-138 290,-70 8,-70"/>
</g>
<g id="clust12" class="cluster">
<title>cluster_AuthModule_providers</title>
<polygon fill="none" stroke="black" points="16,-78 16,-130 282,-130 282,-78 16,-78"/>
</g>
<g id="clust13" class="cluster">
<title>cluster_BookmarkModule</title>
<polygon fill="none" stroke="black" stroke-dasharray="1,5" points="298,-70 298,-138 492,-138 492,-70 298,-70"/>
</g>
<g id="clust18" class="cluster">
<title>cluster_BookmarkModule_providers</title>
<polygon fill="none" stroke="black" points="306,-78 306,-130 484,-130 484,-78 306,-78"/>
</g>
<g id="clust19" class="cluster">
<title>cluster_BookModule</title>
<polygon fill="none" stroke="black" stroke-dasharray="1,5" points="500,-70 500,-138 654,-138 654,-70 500,-70"/>
</g>
<g id="clust24" class="cluster">
<title>cluster_BookModule_providers</title>
<polygon fill="none" stroke="black" points="508,-78 508,-130 646,-130 646,-78 508,-78"/>
</g>
<g id="clust25" class="cluster">
<title>cluster_CategoryModule</title>
<polygon fill="none" stroke="black" stroke-dasharray="1,5" points="662,-70 662,-138 844,-138 844,-70 662,-70"/>
</g>
<g id="clust30" class="cluster">
<title>cluster_CategoryModule_providers</title>
<polygon fill="none" stroke="black" points="670,-78 670,-130 836,-130 836,-78 670,-78"/>
</g>
<g id="clust31" class="cluster">
<title>cluster_FileUploadModule</title>
<polygon fill="none" stroke="black" stroke-dasharray="1,5" points="852,-70 852,-138 1050,-138 1050,-70 852,-70"/>
</g>
<g id="clust36" class="cluster">
<title>cluster_FileUploadModule_providers</title>
<polygon fill="none" stroke="black" points="860,-78 860,-130 1042,-130 1042,-78 860,-78"/>
</g>
<g id="clust37" class="cluster">
<title>cluster_PrismaModule</title>
<polygon fill="none" stroke="black" stroke-dasharray="1,5" points="1286,-214 1286,-282 1576,-282 1576,-214 1286,-214"/>
</g>
<g id="clust40" class="cluster">
<title>cluster_PrismaModule_exports</title>
<polygon fill="none" stroke="black" points="1452,-222 1452,-274 1568,-274 1568,-222 1452,-222"/>
</g>
<g id="clust42" class="cluster">
<title>cluster_PrismaModule_providers</title>
<polygon fill="none" stroke="black" points="1294,-222 1294,-274 1444,-274 1444,-222 1294,-222"/>
</g>
<g id="clust43" class="cluster">
<title>cluster_ProductModule</title>
<polygon fill="none" stroke="black" stroke-dasharray="1,5" points="1058,-70 1058,-138 1230,-138 1230,-70 1058,-70"/>
</g>
<g id="clust48" class="cluster">
<title>cluster_ProductModule_providers</title>
<polygon fill="none" stroke="black" points="1066,-78 1066,-130 1222,-130 1222,-78 1066,-78"/>
</g>
<g id="clust49" class="cluster">
<title>cluster_UserModule</title>
<polygon fill="none" stroke="black" stroke-dasharray="1,5" points="1238,-70 1238,-138 1386,-138 1386,-70 1238,-70"/>
</g>
<g id="clust54" class="cluster">
<title>cluster_UserModule_providers</title>
<polygon fill="none" stroke="black" points="1246,-78 1246,-130 1378,-130 1378,-78 1246,-78"/>
</g>
<!-- AuthModule -->
<g id="node1" class="node">
<title>AuthModule</title>
<polygon fill="#8dd3c7" stroke="black" points="406.55,-198 403.55,-202 382.55,-202 379.55,-198 319.45,-198 319.45,-162 406.55,-162 406.55,-198"/>
<text text-anchor="middle" x="363" y="-175.8" font-family="Times,serif" font-size="14.00">AuthModule</text>
</g>
<!-- AppModule -->
<g id="node9" class="node">
<title>AppModule</title>
<polygon fill="#8dd3c7" stroke="black" points="832.66,-266 829.66,-270 808.66,-270 805.66,-266 749.34,-266 749.34,-230 832.66,-230 832.66,-266"/>
<text text-anchor="middle" x="791" y="-243.8" font-family="Times,serif" font-size="14.00">AppModule</text>
</g>
<!-- AuthModule&#45;&gt;AppModule -->
<g id="edge1" class="edge">
<title>AuthModule&#45;&gt;AppModule</title>
<path fill="none" stroke="black" d="M363,-198.25C363,-221.02 363,-257 363,-257 363,-257 739.18,-257 739.18,-257"/>
<polygon fill="black" stroke="black" points="739.18,-260.5 749.18,-257 739.18,-253.5 739.18,-260.5"/>
</g>
<!-- BookModule -->
<g id="node2" class="node">
<title>BookModule</title>
<polygon fill="#8dd3c7" stroke="black" points="650.89,-198 647.89,-202 626.89,-202 623.89,-198 561.11,-198 561.11,-162 650.89,-162 650.89,-198"/>
<text text-anchor="middle" x="606" y="-175.8" font-family="Times,serif" font-size="14.00">BookModule</text>
</g>
<!-- BookModule&#45;&gt;AppModule -->
<g id="edge2" class="edge">
<title>BookModule&#45;&gt;AppModule</title>
<path fill="none" stroke="black" d="M606,-198.02C606,-215.37 606,-239 606,-239 606,-239 739.02,-239 739.02,-239"/>
<polygon fill="black" stroke="black" points="739.02,-242.5 749.02,-239 739.02,-235.5 739.02,-242.5"/>
</g>
<!-- BookmarkModule -->
<g id="node3" class="node">
<title>BookmarkModule</title>
<polygon fill="#8dd3c7" stroke="black" points="543.15,-198 540.15,-202 519.15,-202 516.15,-198 424.85,-198 424.85,-162 543.15,-162 543.15,-198"/>
<text text-anchor="middle" x="484" y="-175.8" font-family="Times,serif" font-size="14.00">BookmarkModule</text>
</g>
<!-- BookmarkModule&#45;&gt;AppModule -->
<g id="edge3" class="edge">
<title>BookmarkModule&#45;&gt;AppModule</title>
<path fill="none" stroke="black" d="M484,-198.22C484,-218.37 484,-248 484,-248 484,-248 739.28,-248 739.28,-248"/>
<polygon fill="black" stroke="black" points="739.28,-251.5 749.28,-248 739.28,-244.5 739.28,-251.5"/>
</g>
<!-- CategoryModule -->
<g id="node4" class="node">
<title>CategoryModule</title>
<polygon fill="#8dd3c7" stroke="black" points="779.37,-198 776.37,-202 755.37,-202 752.37,-198 668.63,-198 668.63,-162 779.37,-162 779.37,-198"/>
<text text-anchor="middle" x="724" y="-175.8" font-family="Times,serif" font-size="14.00">CategoryModule</text>
</g>
<!-- CategoryModule&#45;&gt;AppModule -->
<g id="edge4" class="edge">
<title>CategoryModule&#45;&gt;AppModule</title>
<path fill="none" stroke="black" d="M764.3,-198.22C764.3,-198.22 764.3,-219.73 764.3,-219.73"/>
<polygon fill="black" stroke="black" points="760.8,-219.73 764.3,-229.73 767.8,-219.73 760.8,-219.73"/>
</g>
<!-- FileUploadModule -->
<g id="node5" class="node">
<title>FileUploadModule</title>
<polygon fill="#8dd3c7" stroke="black" points="920.04,-198 917.04,-202 896.04,-202 893.04,-198 797.96,-198 797.96,-162 920.04,-162 920.04,-198"/>
<text text-anchor="middle" x="859" y="-175.8" font-family="Times,serif" font-size="14.00">FileUploadModule</text>
</g>
<!-- FileUploadModule&#45;&gt;AppModule -->
<g id="edge5" class="edge">
<title>FileUploadModule&#45;&gt;AppModule</title>
<path fill="none" stroke="black" d="M815.28,-198.22C815.28,-198.22 815.28,-219.73 815.28,-219.73"/>
<polygon fill="black" stroke="black" points="811.78,-219.73 815.28,-229.73 818.78,-219.73 811.78,-219.73"/>
</g>
<!-- PrismaModule -->
<g id="node6" class="node">
<title>PrismaModule</title>
<polygon fill="#8dd3c7" stroke="black" points="1262.43,-198 1259.43,-202 1238.43,-202 1235.43,-198 1163.57,-198 1163.57,-162 1262.43,-162 1262.43,-198"/>
<text text-anchor="middle" x="1213" y="-175.8" font-family="Times,serif" font-size="14.00">PrismaModule</text>
</g>
<!-- PrismaModule&#45;&gt;AppModule -->
<g id="edge6" class="edge">
<title>PrismaModule&#45;&gt;AppModule</title>
<path fill="none" stroke="black" d="M1213,-198.25C1213,-221.02 1213,-257 1213,-257 1213,-257 843.01,-257 843.01,-257"/>
<polygon fill="black" stroke="black" points="843.01,-253.5 833.01,-257 843.01,-260.5 843.01,-253.5"/>
</g>
<!-- PrismaService  -->
<g id="node16" class="node">
<title>PrismaService </title>
<polygon fill="#fb8072" stroke="black" points="1560.36,-266 1459.64,-266 1459.64,-230 1560.36,-230 1560.36,-266"/>
<text text-anchor="middle" x="1510" y="-243.8" font-family="Times,serif" font-size="14.00">PrismaService </text>
</g>
<!-- PrismaModule&#45;&gt;PrismaService  -->
<g id="edge15" class="edge">
<title>PrismaModule&#45;&gt;PrismaService </title>
<path fill="none" stroke="black" stroke-dasharray="5,2" d="M1262.38,-174C1346.83,-174 1510,-174 1510,-174 1510,-174 1510,-219.71 1510,-219.71"/>
<polygon fill="black" stroke="black" points="1506.5,-219.71 1510,-229.71 1513.5,-219.71 1506.5,-219.71"/>
</g>
<!-- ProductModule -->
<g id="node7" class="node">
<title>ProductModule</title>
<polygon fill="#8dd3c7" stroke="black" points="1041.6,-198 1038.6,-202 1017.6,-202 1014.6,-198 938.4,-198 938.4,-162 1041.6,-162 1041.6,-198"/>
<text text-anchor="middle" x="990" y="-175.8" font-family="Times,serif" font-size="14.00">ProductModule</text>
</g>
<!-- ProductModule&#45;&gt;AppModule -->
<g id="edge7" class="edge">
<title>ProductModule&#45;&gt;AppModule</title>
<path fill="none" stroke="black" d="M990,-198.02C990,-215.37 990,-239 990,-239 990,-239 842.72,-239 842.72,-239"/>
<polygon fill="black" stroke="black" points="842.72,-235.5 832.72,-239 842.72,-242.5 842.72,-235.5"/>
</g>
<!-- UserModule -->
<g id="node8" class="node">
<title>UserModule</title>
<polygon fill="#8dd3c7" stroke="black" points="1145.98,-198 1142.98,-202 1121.98,-202 1118.98,-198 1060.02,-198 1060.02,-162 1145.98,-162 1145.98,-198"/>
<text text-anchor="middle" x="1103" y="-175.8" font-family="Times,serif" font-size="14.00">UserModule</text>
</g>
<!-- UserModule&#45;&gt;AppModule -->
<g id="edge8" class="edge">
<title>UserModule&#45;&gt;AppModule</title>
<path fill="none" stroke="black" d="M1103,-198.22C1103,-218.37 1103,-248 1103,-248 1103,-248 842.75,-248 842.75,-248"/>
<polygon fill="black" stroke="black" points="842.75,-244.5 832.75,-248 842.75,-251.5 842.75,-244.5"/>
</g>
<!-- AuthService -->
<g id="node10" class="node">
<title>AuthService</title>
<ellipse fill="#fdb462" stroke="black" cx="215" cy="-104" rx="59.11" ry="18"/>
<text text-anchor="middle" x="215" y="-99.8" font-family="Times,serif" font-size="14.00">AuthService</text>
</g>
<!-- AuthService&#45;&gt;AuthModule -->
<g id="edge9" class="edge">
<title>AuthService&#45;&gt;AuthModule</title>
<path fill="none" stroke="black" d="M215,-122.03C215,-142.77 215,-174 215,-174 215,-174 309.4,-174 309.4,-174"/>
<polygon fill="black" stroke="black" points="309.4,-177.5 319.4,-174 309.4,-170.5 309.4,-177.5"/>
</g>
<!-- JwtStrategy -->
<g id="node11" class="node">
<title>JwtStrategy</title>
<ellipse fill="#fdb462" stroke="black" cx="81" cy="-104" rx="56.76" ry="18"/>
<text text-anchor="middle" x="81" y="-99.8" font-family="Times,serif" font-size="14.00">JwtStrategy</text>
</g>
<!-- JwtStrategy&#45;&gt;AuthModule -->
<g id="edge10" class="edge">
<title>JwtStrategy&#45;&gt;AuthModule</title>
<path fill="none" stroke="black" d="M81,-122.2C81,-146.36 81,-186 81,-186 81,-186 309.25,-186 309.25,-186"/>
<polygon fill="black" stroke="black" points="309.25,-189.5 319.25,-186 309.25,-182.5 309.25,-189.5"/>
</g>
<!-- BookmarkService -->
<g id="node12" class="node">
<title>BookmarkService</title>
<ellipse fill="#fdb462" stroke="black" cx="395" cy="-104" rx="80.52" ry="18"/>
<text text-anchor="middle" x="395" y="-99.8" font-family="Times,serif" font-size="14.00">BookmarkService</text>
</g>
<!-- BookmarkService&#45;&gt;BookmarkModule -->
<g id="edge11" class="edge">
<title>BookmarkService&#45;&gt;BookmarkModule</title>
<path fill="none" stroke="black" d="M450.22,-117.24C450.22,-117.24 450.22,-151.79 450.22,-151.79"/>
<polygon fill="black" stroke="black" points="446.72,-151.79 450.22,-161.79 453.72,-151.79 446.72,-151.79"/>
</g>
<!-- BookService -->
<g id="node13" class="node">
<title>BookService</title>
<ellipse fill="#fdb462" stroke="black" cx="577" cy="-104" rx="60.84" ry="18"/>
<text text-anchor="middle" x="577" y="-99.8" font-family="Times,serif" font-size="14.00">BookService</text>
</g>
<!-- BookService&#45;&gt;BookModule -->
<g id="edge12" class="edge">
<title>BookService&#45;&gt;BookModule</title>
<path fill="none" stroke="black" d="M599.49,-120.87C599.49,-120.87 599.49,-151.85 599.49,-151.85"/>
<polygon fill="black" stroke="black" points="595.99,-151.85 599.49,-161.85 602.99,-151.85 595.99,-151.85"/>
</g>
<!-- CategoryService -->
<g id="node14" class="node">
<title>CategoryService</title>
<ellipse fill="#fdb462" stroke="black" cx="753" cy="-104" rx="75.28" ry="18"/>
<text text-anchor="middle" x="753" y="-99.8" font-family="Times,serif" font-size="14.00">CategoryService</text>
</g>
<!-- CategoryService&#45;&gt;CategoryModule -->
<g id="edge13" class="edge">
<title>CategoryService&#45;&gt;CategoryModule</title>
<path fill="none" stroke="black" d="M728.52,-121.25C728.52,-121.25 728.52,-151.76 728.52,-151.76"/>
<polygon fill="black" stroke="black" points="725.02,-151.76 728.52,-161.76 732.02,-151.76 725.02,-151.76"/>
</g>
<!-- FileUploadService -->
<g id="node15" class="node">
<title>FileUploadService</title>
<ellipse fill="#fdb462" stroke="black" cx="951" cy="-104" rx="83.38" ry="18"/>
<text text-anchor="middle" x="951" y="-99.8" font-family="Times,serif" font-size="14.00">FileUploadService</text>
</g>
<!-- FileUploadService&#45;&gt;FileUploadModule -->
<g id="edge14" class="edge">
<title>FileUploadService&#45;&gt;FileUploadModule</title>
<path fill="none" stroke="black" d="M893.91,-117.24C893.91,-117.24 893.91,-151.79 893.91,-151.79"/>
<polygon fill="black" stroke="black" points="890.41,-151.79 893.91,-161.79 897.41,-151.79 890.41,-151.79"/>
</g>
<!-- PrismaService -->
<g id="node17" class="node">
<title>PrismaService</title>
<ellipse fill="#fdb462" stroke="black" cx="1369" cy="-248" rx="66.63" ry="18"/>
<text text-anchor="middle" x="1369" y="-243.8" font-family="Times,serif" font-size="14.00">PrismaService</text>
</g>
<!-- PrismaService&#45;&gt;PrismaModule -->
<g id="edge16" class="edge">
<title>PrismaService&#45;&gt;PrismaModule</title>
<path fill="none" stroke="black" d="M1336.2,-232.03C1336.2,-213.66 1336.2,-186 1336.2,-186 1336.2,-186 1272.4,-186 1272.4,-186"/>
<polygon fill="black" stroke="black" points="1272.4,-182.5 1262.4,-186 1272.4,-189.5 1272.4,-182.5"/>
</g>
<!-- ProductService -->
<g id="node18" class="node">
<title>ProductService</title>
<ellipse fill="#fdb462" stroke="black" cx="1144" cy="-104" rx="70.06" ry="18"/>
<text text-anchor="middle" x="1144" y="-99.8" font-family="Times,serif" font-size="14.00">ProductService</text>
</g>
<!-- ProductService&#45;&gt;ProductModule -->
<g id="edge17" class="edge">
<title>ProductService&#45;&gt;ProductModule</title>
<path fill="none" stroke="black" d="M1073.88,-104C1054.17,-104 1038,-104 1038,-104 1038,-104 1038,-151.99 1038,-151.99"/>
<polygon fill="black" stroke="black" points="1034.5,-151.99 1038,-161.99 1041.5,-151.99 1034.5,-151.99"/>
</g>
<!-- UserService -->
<g id="node19" class="node">
<title>UserService</title>
<ellipse fill="#fdb462" stroke="black" cx="1312" cy="-104" rx="58.44" ry="18"/>
<text text-anchor="middle" x="1312" y="-99.8" font-family="Times,serif" font-size="14.00">UserService</text>
</g>
<!-- UserService&#45;&gt;UserModule -->
<g id="edge18" class="edge">
<title>UserService&#45;&gt;UserModule</title>
<path fill="none" stroke="black" d="M1258,-110.97C1258,-121.94 1258,-142 1258,-142 1258,-142 1109.98,-142 1109.98,-142 1109.98,-142 1109.98,-151.89 1109.98,-151.89"/>
<polygon fill="black" stroke="black" points="1106.48,-151.89 1109.98,-161.89 1113.48,-151.89 1106.48,-151.89"/>
</g>
</g>
</svg>
